<?xml version="1.0"?>
<!-- Created by MetaPost 2.01 on 2022.08.11:1724 -->
<svg version="1.1" xmlns="http://www.w3.org/2000/svg" xmlns:xlink="http://www.w3.org/1999/xlink" width="202.893127" height="168.911057" viewBox="0 0 202.893127 168.911057">
<!-- Original BoundingBox: -62.895676 84.049652 139.997452 168.911057 -->
  <defs>
    <g transform="scale(0.017215,0.017215)" id="GLYPHcmss17_65">
      <path style="fill-rule: evenodd;" d="M355.000000 -694.000000L269.000000 -694.000000L26.000000 -0.000000L102.000000 -0.000000L172.000000 -202.000000L440.000000 -202.000000L511.000000 -0.000000L598.000000 -0.000000M421.000000 -258.000000L191.000000 -258.000000C239.000000 -398.000000,299.000000 -572.000000,306.000000 -617.000000L307.000000 -617.000000C314.000000 -576.000000,334.000000 -516.000000,351.000000 -465.000000"></path>
    </g>
    <g transform="scale(0.017215,0.017215)" id="GLYPHcmss17_77">
      <path style="fill-rule: evenodd;" d="M499.000000 -373.000000L451.000000 -232.000000C443.000000 -206.000000,416.000000 -125.000000,410.000000 -93.000000L409.000000 -93.000000C406.000000 -113.000000,400.000000 -134.000000,384.000000 -185.000000C375.000000 -215.000000,365.000000 -246.000000,355.000000 -274.000000L207.000000 -694.000000L90.000000 -694.000000L90.000000 -0.000000L168.000000 -0.000000L168.000000 -613.000000L169.000000 -613.000000C169.000000 -612.000000,178.000000 -568.000000,239.000000 -393.000000L371.000000 -16.000000L445.000000 -16.000000L564.000000 -351.000000C572.000000 -374.000000,597.000000 -447.000000,608.000000 -482.000000C618.000000 -512.000000,643.000000 -586.000000,649.000000 -615.000000L650.000000 -615.000000L650.000000 -0.000000L729.000000 -0.000000L729.000000 -694.000000L613.000000 -694.000000"></path>
    </g>
    <g transform="scale(0.017215,0.017215)" id="GLYPHcmss17_80">
      <path style="fill-rule: evenodd;" d="M329.000000 -289.000000C449.000000 -289.000000,547.000000 -382.000000,547.000000 -492.000000C547.000000 -600.000000,453.000000 -694.000000,323.000000 -694.000000L89.000000 -694.000000L89.000000 -0.000000L173.000000 -0.000000L173.000000 -289.000000M301.000000 -638.000000C417.000000 -638.000000,468.000000 -565.000000,468.000000 -492.000000C468.000000 -424.000000,421.000000 -347.000000,301.000000 -347.000000L171.000000 -347.000000L171.000000 -638.000000"></path>
    </g>
    <g transform="scale(0.017215,0.017215)" id="GLYPHcmss17_99">
      <path style="fill-rule: evenodd;" d="M385.000000 -399.000000C385.000000 -406.000000,339.000000 -426.000000,327.000000 -430.000000C294.000000 -442.000000,252.000000 -442.000000,241.000000 -442.000000C111.000000 -442.000000,33.000000 -329.000000,33.000000 -215.000000C33.000000 -95.000000,120.000000 8.000000,237.000000 8.000000C304.000000 8.000000,352.000000 -14.000000,391.000000 -40.000000L385.000000 -106.000000C342.000000 -73.000000,292.000000 -55.000000,238.000000 -55.000000C160.000000 -55.000000,109.000000 -123.000000,109.000000 -216.000000C109.000000 -288.000000,142.000000 -379.000000,242.000000 -379.000000C297.000000 -379.000000,328.000000 -368.000000,374.000000 -337.000000"></path>
    </g>
    <g transform="scale(0.017215,0.017215)" id="GLYPHcmss17_100">
      <path style="fill-rule: evenodd;" d="M408.000000 -694.000000L334.000000 -694.000000L334.000000 -388.000000C303.000000 -414.000000,252.000000 -438.000000,196.000000 -438.000000C105.000000 -438.000000,33.000000 -339.000000,33.000000 -215.000000C33.000000 -91.000000,104.000000 8.000000,193.000000 8.000000C262.000000 8.000000,308.000000 -29.000000,332.000000 -50.000000L332.000000 -0.000000L408.000000 -0.000000M332.000000 -134.000000C332.000000 -120.000000,332.000000 -105.000000,301.000000 -78.000000C281.000000 -61.000000,257.000000 -53.000000,234.000000 -53.000000C180.000000 -53.000000,109.000000 -93.000000,109.000000 -214.000000C109.000000 -340.000000,189.000000 -377.000000,244.000000 -377.000000C281.000000 -377.000000,311.000000 -359.000000,332.000000 -329.000000"></path>
    </g>
    <g transform="scale(0.017215,0.017215)" id="GLYPHcmss17_105">
      <path style="fill-rule: evenodd;" d="M153.000000 -658.000000L69.000000 -658.000000L69.000000 -574.000000L153.000000 -574.000000M148.000000 -430.000000L74.000000 -430.000000L74.000000 -0.000000L148.000000 -0.000000"></path>
    </g>
    <g transform="scale(0.017215,0.017215)" id="GLYPHcmss17_110">
      <path style="fill-rule: evenodd;" d="M409.000000 -292.000000C409.000000 -355.000000,394.000000 -438.000000,281.000000 -438.000000C217.000000 -438.000000,175.000000 -405.000000,147.000000 -371.000000L147.000000 -433.000000L74.000000 -433.000000L74.000000 -0.000000L150.000000 -0.000000L150.000000 -242.000000C150.000000 -305.000000,174.000000 -377.000000,242.000000 -377.000000C330.000000 -377.000000,333.000000 -318.000000,333.000000 -284.000000L333.000000 -0.000000L409.000000 -0.000000"></path>
    </g>
    <g transform="scale(0.017215,0.017215)" id="GLYPHcmss17_111">
      <path style="fill-rule: evenodd;" d="M442.000000 -214.000000C442.000000 -342.000000,347.000000 -442.000000,235.000000 -442.000000C120.000000 -442.000000,27.000000 -339.000000,27.000000 -214.000000C27.000000 -87.000000,123.000000 8.000000,234.000000 8.000000C348.000000 8.000000,442.000000 -90.000000,442.000000 -214.000000M235.000000 -55.000000C164.000000 -55.000000,103.000000 -113.000000,103.000000 -222.000000C103.000000 -338.000000,174.000000 -381.000000,234.000000 -381.000000C299.000000 -381.000000,366.000000 -334.000000,366.000000 -222.000000C366.000000 -109.000000,301.000000 -55.000000,235.000000 -55.000000"></path>
    </g>
    <g transform="scale(0.017215,0.017215)" id="GLYPHcmss17_114">
      <path style="fill-rule: evenodd;" d="M149.000000 -213.000000C149.000000 -307.000000,218.000000 -370.000000,306.000000 -372.000000L306.000000 -438.000000C242.000000 -437.000000,182.000000 -405.000000,146.000000 -353.000000L146.000000 -433.000000L75.000000 -433.000000L75.000000 -0.000000L149.000000 -0.000000"></path>
    </g>
    <g transform="scale(0.017215,0.017215)" id="GLYPHcmss17_117">
      <path style="fill-rule: evenodd;" d="M409.000000 -430.000000L333.000000 -430.000000L333.000000 -154.000000C333.000000 -80.000000,279.000000 -50.000000,222.000000 -50.000000C156.000000 -50.000000,150.000000 -72.000000,150.000000 -113.000000L150.000000 -430.000000L74.000000 -430.000000L74.000000 -108.000000C74.000000 -30.000000,101.000000 8.000000,170.000000 8.000000C204.000000 8.000000,281.000000 -0.000000,335.000000 -50.000000L335.000000 -0.000000L409.000000 -0.000000"></path>
    </g>
    <g transform="scale(0.009963,0.009963)" id="GLYPHcmss10_48">
      <path style="fill-rule: evenodd;" d="M457.000000 -326.000000C457.000000 -405.000000,453.000000 -498.000000,411.000000 -579.000000C370.000000 -654.000000,301.000000 -678.000000,250.000000 -678.000000C191.000000 -678.000000,121.000000 -651.000000,80.000000 -562.000000C47.000000 -489.000000,42.000000 -406.000000,42.000000 -326.000000C42.000000 -247.000000,46.000000 -174.000000,76.000000 -101.000000C116.000000 -5.000000,192.000000 22.000000,249.000000 22.000000C322.000000 22.000000,385.000000 -19.000000,417.000000 -88.000000C447.000000 -153.000000,457.000000 -219.000000,457.000000 -326.000000M250.000000 -39.000000C198.000000 -39.000000,157.000000 -77.000000,137.000000 -149.000000C121.000000 -206.000000,120.000000 -260.000000,120.000000 -338.000000C120.000000 -401.000000,120.000000 -461.000000,137.000000 -516.000000C143.000000 -535.000000,168.000000 -617.000000,249.000000 -617.000000C327.000000 -617.000000,353.000000 -541.000000,360.000000 -523.000000C379.000000 -467.000000,379.000000 -400.000000,379.000000 -338.000000C379.000000 -272.000000,379.000000 -209.000000,361.000000 -146.000000C335.000000 -55.000000,282.000000 -39.000000,250.000000 -39.000000"></path>
    </g>
    <g transform="scale(0.009963,0.009963)" id="GLYPHcmss10_49">
      <path style="fill-rule: evenodd;" d="M299.000000 -678.000000L279.000000 -678.000000C220.000000 -617.000000,137.000000 -614.000000,89.000000 -612.000000L89.000000 -554.000000C122.000000 -555.000000,170.000000 -557.000000,220.000000 -578.000000L220.000000 -58.000000L95.000000 -58.000000L95.000000 -0.000000L424.000000 -0.000000L424.000000 -58.000000L299.000000 -58.000000"></path>
    </g>
    <g transform="scale(0.009963,0.009963)" id="GLYPHcmss10_50">
      <path style="fill-rule: evenodd;" d="M174.000000 -188.000000L50.000000 -64.000000L50.000000 -0.000000L449.000000 -0.000000L449.000000 -71.000000L267.000000 -71.000000C255.000000 -71.000000,243.000000 -70.000000,231.000000 -70.000000L122.000000 -70.000000C154.000000 -98.000000,230.000000 -173.000000,261.000000 -202.000000C280.000000 -220.000000,331.000000 -262.000000,350.000000 -280.000000C395.000000 -325.000000,449.000000 -378.000000,449.000000 -463.000000C449.000000 -578.000000,368.000000 -678.000000,236.000000 -678.000000C122.000000 -678.000000,66.000000 -600.000000,42.000000 -514.000000C54.000000 -497.000000,59.000000 -491.000000,61.000000 -488.000000C63.000000 -486.000000,73.000000 -473.000000,83.000000 -459.000000C103.000000 -536.000000,131.000000 -614.000000,222.000000 -614.000000C316.000000 -614.000000,367.000000 -539.000000,367.000000 -461.000000C367.000000 -376.000000,310.000000 -319.000000,251.000000 -259.000000"></path>
    </g>
    <g transform="scale(0.009963,0.009963)" id="GLYPHcmss10_52">
      <path style="fill-rule: evenodd;" d="M372.000000 -171.000000L471.000000 -171.000000L471.000000 -232.000000L372.000000 -232.000000L372.000000 -656.000000L281.000000 -656.000000L28.000000 -232.000000L28.000000 -171.000000L293.000000 -171.000000L293.000000 -0.000000L372.000000 -0.000000M106.000000 -232.000000C158.000000 -318.000000,299.000000 -555.000000,299.000000 -612.000000L299.000000 -232.000000"></path>
    </g>
    <g transform="scale(0.009963,0.009963)" id="GLYPHcmss10_53">
      <path style="fill-rule: evenodd;" d="M153.000000 -592.000000L416.000000 -592.000000L416.000000 -656.000000L81.000000 -656.000000L81.000000 -287.000000L147.000000 -287.000000C164.000000 -327.000000,201.000000 -366.000000,259.000000 -366.000000C306.000000 -366.000000,360.000000 -325.000000,360.000000 -205.000000C360.000000 -39.000000,238.000000 -39.000000,229.000000 -39.000000C162.000000 -39.000000,101.000000 -78.000000,72.000000 -132.000000L39.000000 -76.000000C80.000000 -19.000000,149.000000 22.000000,230.000000 22.000000C349.000000 22.000000,449.000000 -77.000000,449.000000 -203.000000C449.000000 -328.000000,363.000000 -427.000000,260.000000 -427.000000C220.000000 -427.000000,182.000000 -412.000000,153.000000 -386.000000"></path>
    </g>
    <g transform="scale(0.009963,0.009963)" id="GLYPHcmss10_54">
      <path style="fill-rule: evenodd;" d="M415.000000 -658.000000C364.000000 -678.000000,323.000000 -678.000000,309.000000 -678.000000C168.000000 -678.000000,42.000000 -537.000000,42.000000 -322.000000C42.000000 -39.000000,166.000000 22.000000,251.000000 22.000000C311.000000 22.000000,354.000000 -1.000000,393.000000 -46.000000C438.000000 -97.000000,457.000000 -143.000000,457.000000 -222.000000C457.000000 -350.000000,391.000000 -462.000000,295.000000 -462.000000C263.000000 -462.000000,187.000000 -454.000000,126.000000 -379.000000C139.000000 -540.000000,218.000000 -620.000000,310.000000 -620.000000C348.000000 -620.000000,380.000000 -613.000000,415.000000 -599.000000M127.000000 -219.000000C127.000000 -233.000000,127.000000 -235.000000,128.000000 -247.000000C128.000000 -321.000000,173.000000 -401.000000,256.000000 -401.000000C304.000000 -401.000000,332.000000 -376.000000,352.000000 -339.000000C373.000000 -302.000000,375.000000 -267.000000,375.000000 -222.000000C375.000000 -188.000000,375.000000 -142.000000,351.000000 -101.000000C334.000000 -73.000000,308.000000 -39.000000,251.000000 -39.000000C145.000000 -39.000000,130.000000 -186.000000,127.000000 -219.000000"></path>
    </g>
    <g transform="scale(0.009963,0.009963)" id="GLYPHcmss10_66">
      <path style="fill-rule: evenodd;" d="M97.000000 -694.000000L97.000000 -0.000000L361.000000 -0.000000C505.000000 -0.000000,610.000000 -90.000000,610.000000 -188.000000C610.000000 -275.000000,523.000000 -346.000000,417.000000 -363.000000C508.000000 -386.000000,583.000000 -444.000000,583.000000 -520.000000C583.000000 -612.000000,476.000000 -694.000000,334.000000 -694.000000M180.000000 -391.000000L180.000000 -638.000000L306.000000 -638.000000C417.000000 -638.000000,505.000000 -585.000000,505.000000 -519.000000C505.000000 -459.000000,434.000000 -391.000000,296.000000 -391.000000M180.000000 -56.000000L180.000000 -330.000000L325.000000 -330.000000C431.000000 -330.000000,529.000000 -269.000000,529.000000 -189.000000C529.000000 -114.000000,441.000000 -56.000000,333.000000 -56.000000"></path>
    </g>
    <g transform="scale(0.009963,0.009963)" id="GLYPHcmss10_67">
      <path style="fill-rule: evenodd;" d="M582.000000 -114.000000C523.000000 -75.000000,489.000000 -54.000000,390.000000 -54.000000C246.000000 -54.000000,156.000000 -204.000000,156.000000 -348.000000C156.000000 -484.000000,239.000000 -641.000000,392.000000 -641.000000C463.000000 -641.000000,508.000000 -624.000000,563.000000 -589.000000L577.000000 -671.000000C534.000000 -692.000000,457.000000 -705.000000,393.000000 -705.000000C208.000000 -705.000000,66.000000 -549.000000,66.000000 -339.000000C66.000000 -181.000000,185.000000 11.000000,393.000000 11.000000C485.000000 11.000000,523.000000 -5.000000,588.000000 -45.000000"></path>
    </g>
    <g transform="scale(0.009963,0.009963)" id="GLYPHcmss10_68">
      <path style="fill-rule: evenodd;" d="M96.000000 -694.000000L96.000000 -0.000000L359.000000 -0.000000C529.000000 -0.000000,665.000000 -152.000000,665.000000 -341.000000C665.000000 -535.000000,530.000000 -694.000000,358.000000 -694.000000M182.000000 -56.000000L182.000000 -638.000000L335.000000 -638.000000C475.000000 -638.000000,579.000000 -517.000000,579.000000 -341.000000C579.000000 -171.000000,475.000000 -56.000000,335.000000 -56.000000"></path>
    </g>
    <g transform="scale(0.009963,0.009963)" id="GLYPHcmss10_71">
      <path style="fill-rule: evenodd;" d="M600.000000 -299.000000L389.000000 -299.000000L389.000000 -237.000000L521.000000 -237.000000L521.000000 -74.000000C481.000000 -60.000000,433.000000 -53.000000,390.000000 -53.000000C258.000000 -53.000000,156.000000 -186.000000,156.000000 -348.000000C156.000000 -505.000000,256.000000 -641.000000,388.000000 -641.000000C469.000000 -641.000000,526.000000 -617.000000,577.000000 -575.000000L591.000000 -657.000000C535.000000 -692.000000,457.000000 -706.000000,391.000000 -706.000000C198.000000 -706.000000,66.000000 -531.000000,66.000000 -348.000000C66.000000 -166.000000,199.000000 11.000000,391.000000 11.000000C465.000000 11.000000,533.000000 -9.000000,600.000000 -38.000000"></path>
    </g>
    <g transform="scale(0.009963,0.009963)" id="GLYPHcmss10_73">
      <path style="fill-rule: evenodd;" d="M183.000000 -694.000000L94.000000 -694.000000L94.000000 -0.000000L183.000000 -0.000000"></path>
    </g>
    <g transform="scale(0.009963,0.009963)" id="GLYPHcmss10_75">
      <path style="fill-rule: evenodd;" d="M369.000000 -420.000000L637.000000 -694.000000L544.000000 -694.000000L181.000000 -323.000000L181.000000 -694.000000L96.000000 -694.000000L96.000000 -0.000000L181.000000 -0.000000L181.000000 -227.000000L314.000000 -364.000000L559.000000 -0.000000L651.000000 -0.000000"></path>
    </g>
    <g transform="scale(0.009963,0.009963)" id="GLYPHcmss10_76">
      <path style="fill-rule: evenodd;" d="M183.000000 -694.000000L94.000000 -694.000000L94.000000 -0.000000L499.000000 -0.000000L499.000000 -66.000000C410.000000 -65.000000,321.000000 -64.000000,232.000000 -64.000000L183.000000 -64.000000"></path>
    </g>
    <g transform="scale(0.009963,0.009963)" id="GLYPHcmss10_78">
      <path style="fill-rule: evenodd;" d="M220.000000 -694.000000L96.000000 -694.000000L96.000000 -0.000000L174.000000 -0.000000L174.000000 -623.000000L175.000000 -623.000000C194.000000 -582.000000,236.000000 -497.000000,242.000000 -486.000000L487.000000 -0.000000L611.000000 -0.000000L611.000000 -694.000000L533.000000 -694.000000L533.000000 -71.000000L532.000000 -71.000000C513.000000 -112.000000,471.000000 -197.000000,465.000000 -208.000000"></path>
    </g>
    <g transform="scale(0.009963,0.009963)" id="GLYPHcmss10_82">
      <path style="fill-rule: evenodd;" d="M419.000000 -326.000000C522.000000 -356.000000,589.000000 -427.000000,589.000000 -508.000000C589.000000 -607.000000,480.000000 -694.000000,337.000000 -694.000000L96.000000 -694.000000L96.000000 -0.000000L182.000000 -0.000000L182.000000 -317.000000L340.000000 -317.000000L528.000000 -0.000000L617.000000 -0.000000M182.000000 -378.000000L182.000000 -638.000000L326.000000 -638.000000C442.000000 -638.000000,508.000000 -579.000000,508.000000 -508.000000C508.000000 -437.000000,444.000000 -378.000000,326.000000 -378.000000"></path>
    </g>
    <g transform="scale(0.009963,0.009963)" id="GLYPHcmss10_83">
      <path style="fill-rule: evenodd;" d="M465.000000 -666.000000C410.000000 -699.000000,355.000000 -716.000000,282.000000 -716.000000C143.000000 -716.000000,56.000000 -618.000000,56.000000 -519.000000C56.000000 -476.000000,70.000000 -434.000000,110.000000 -392.000000C152.000000 -347.000000,196.000000 -335.000000,255.000000 -321.000000C340.000000 -300.000000,350.000000 -297.000000,378.000000 -272.000000C398.000000 -255.000000,420.000000 -222.000000,420.000000 -179.000000C420.000000 -113.000000,365.000000 -47.000000,274.000000 -47.000000C233.000000 -47.000000,143.000000 -57.000000,59.000000 -128.000000L44.000000 -47.000000C132.000000 8.000000,212.000000 22.000000,275.000000 22.000000C407.000000 22.000000,499.000000 -79.000000,499.000000 -189.000000C499.000000 -254.000000,468.000000 -302.000000,446.000000 -326.000000C399.000000 -376.000000,366.000000 -385.000000,274.000000 -408.000000C216.000000 -422.000000,200.000000 -426.000000,170.000000 -452.000000C163.000000 -458.000000,135.000000 -487.000000,135.000000 -531.000000C135.000000 -590.000000,189.000000 -650.000000,281.000000 -650.000000C365.000000 -650.000000,413.000000 -617.000000,450.000000 -586.000000"></path>
    </g>
    <g transform="scale(0.009963,0.009963)" id="GLYPHcmss10_84">
      <path style="fill-rule: evenodd;" d="M385.000000 -624.000000L474.000000 -624.000000C486.000000 -624.000000,498.000000 -623.000000,510.000000 -623.000000L644.000000 -623.000000L644.000000 -688.000000L36.000000 -688.000000L36.000000 -623.000000L170.000000 -623.000000C182.000000 -623.000000,194.000000 -624.000000,206.000000 -624.000000L296.000000 -624.000000L296.000000 -0.000000L385.000000 -0.000000"></path>
    </g>
    <g transform="scale(0.009963,0.009963)" id="GLYPHcmss10_86">
      <path style="fill-rule: evenodd;" d="M652.000000 -694.000000L574.000000 -694.000000L441.000000 -352.000000C425.000000 -311.000000,350.000000 -118.000000,341.000000 -72.000000L340.000000 -72.000000C332.000000 -112.000000,289.000000 -222.000000,280.000000 -246.000000L107.000000 -694.000000L14.000000 -694.000000L287.000000 -0.000000L379.000000 -0.000000"></path>
    </g>
  </defs>
  <path d="M-0.645676 71.622253L201.747452 71.622253L201.747452 -0.661057L-0.645676 -0.661057Z" style="stroke:rgb(0.000000%,0.000000%,0.000000%); stroke-width: 0.500000;stroke-linecap: round;stroke-linejoin: round;stroke-miterlimit: 10.000000;fill: none;"></path>
  <g transform="translate(39.921127 31.820557)" style="fill: rgb(0.000000%,0.000000%,0.000000%);">
    <use xlink:href="#GLYPHcmss17_65"></use>
    <use xlink:href="#GLYPHcmss17_114" x="10.791733"></use>
    <use xlink:href="#GLYPHcmss17_100" x="16.326503"></use>
    <use xlink:href="#GLYPHcmss17_117" x="24.687686"></use>
    <use xlink:href="#GLYPHcmss17_105" x="33.048869"></use>
    <use xlink:href="#GLYPHcmss17_110" x="36.896125"></use>
    <use xlink:href="#GLYPHcmss17_111" x="45.257309"></use>
  </g>
  <g transform="translate(98.499527 31.820557)" style="fill: rgb(0.000000%,0.000000%,0.000000%);">
    <use xlink:href="#GLYPHcmss17_80"></use>
    <use xlink:href="#GLYPHcmss17_114" x="10.361178"></use>
    <use xlink:href="#GLYPHcmss17_111" x="15.895948"></use>
    <use xlink:href="#GLYPHcmss17_77" x="24.021000"></use>
    <use xlink:href="#GLYPHcmss17_105" x="38.187759"></use>
    <use xlink:href="#GLYPHcmss17_99" x="42.035016"></use>
    <use xlink:href="#GLYPHcmss17_114" x="49.257299"></use>
    <use xlink:href="#GLYPHcmss17_111" x="54.792068"></use>
  </g>
  <g transform="translate(25.695450 68.622253)" style="fill: rgb(0.000000%,0.000000%,0.000000%);">
    <use xlink:href="#GLYPHcmss10_49"></use>
    <use xlink:href="#GLYPHcmss10_54" x="5.000095"></use>
  </g>
  <g transform="translate(24.865250 55.806259)" style="fill: rgb(0.000000%,0.000000%,0.000000%);">
    <use xlink:href="#GLYPHcmss10_66"></use>
    <use xlink:href="#GLYPHcmss10_50" x="6.666793"></use>
  </g>
  <path d="M24.448395 57.165817L36.905212 57.165817C37.457504 57.165817,37.905212 56.718109,37.905212 56.165817L37.905212 48.528183C37.905212 47.975891,37.457504 47.528183,36.905212 47.528183L24.448395 47.528183C23.896103 47.528183,23.448395 47.975891,23.448395 48.528183L23.448395 56.165817C23.448395 56.718109,23.896103 57.165817,24.448395 57.165817Z" style="stroke:rgb(0.000000%,0.000000%,0.000000%); stroke-width: 0.099625;stroke-linecap: round;stroke-linejoin: round;stroke-miterlimit: 10.000000;fill: none;"></path>
  <g transform="translate(4.010605 68.622253)" style="fill: rgb(0.000000%,0.000000%,0.000000%);">
    <use xlink:href="#GLYPHcmss10_49"></use>
    <use xlink:href="#GLYPHcmss10_48" x="5.000095"></use>
  </g>
  <g transform="translate(3.180405 55.806259)" style="fill: rgb(0.000000%,0.000000%,0.000000%);">
    <use xlink:href="#GLYPHcmss10_66"></use>
    <use xlink:href="#GLYPHcmss10_54" x="6.666793"></use>
  </g>
  <path d="M2.763550 57.165817L15.220367 57.165817C15.772659 57.165817,16.220367 56.718109,16.220367 56.165817L16.220367 48.528183C16.220367 47.975891,15.772659 47.528183,15.220367 47.528183L2.763550 47.528183C2.211258 47.528183,1.763550 47.975891,1.763550 48.528183L1.763550 56.165817C1.763550 56.718109,2.211258 57.165817,2.763550 57.165817Z" style="stroke:rgb(0.000000%,0.000000%,0.000000%); stroke-width: 0.099625;stroke-linecap: round;stroke-linejoin: round;stroke-miterlimit: 10.000000;fill: none;"></path>
  <g transform="translate(69.065140 68.622253)" style="fill: rgb(0.000000%,0.000000%,0.000000%);">
    <use xlink:href="#GLYPHcmss10_49"></use>
    <use xlink:href="#GLYPHcmss10_53" x="5.000095"></use>
  </g>
  <g transform="translate(68.234940 55.806259)" style="fill: rgb(0.000000%,0.000000%,0.000000%);">
    <use xlink:href="#GLYPHcmss10_66"></use>
    <use xlink:href="#GLYPHcmss10_49" x="6.666793"></use>
  </g>
  <path d="M67.818100 57.165817L80.274887 57.165817C80.827179 57.165817,81.274887 56.718109,81.274887 56.165817L81.274887 48.528183C81.274887 47.975891,80.827179 47.528183,80.274887 47.528183L67.818100 47.528183C67.265808 47.528183,66.818100 47.975891,66.818100 48.528183L66.818100 56.165817C66.818100 56.718109,67.265808 57.165817,67.818100 57.165817Z" style="stroke:rgb(0.000000%,0.000000%,0.000000%); stroke-width: 0.099625;stroke-linecap: round;stroke-linejoin: round;stroke-miterlimit: 10.000000;fill: none;"></path>
  <g transform="translate(47.380295 68.622253)" style="fill: rgb(0.000000%,0.000000%,0.000000%);">
    <use xlink:href="#GLYPHcmss10_49"></use>
    <use xlink:href="#GLYPHcmss10_52" x="5.000095"></use>
  </g>
  <g transform="translate(117.025391 68.622253)" style="fill: rgb(0.000000%,0.000000%,0.000000%);">
    <use xlink:href="#GLYPHcmss10_86"></use>
  </g>
  <g transform="translate(123.390396 68.622253)" style="fill: rgb(0.000000%,0.000000%,0.000000%);">
    <use xlink:href="#GLYPHcmss10_67"></use>
    <use xlink:href="#GLYPHcmss10_67" x="6.389002"></use>
  </g>
  <g transform="translate(140.328781 68.622253)" style="fill: rgb(0.000000%,0.000000%,0.000000%);">
    <use xlink:href="#GLYPHcmss10_82"></use>
    <use xlink:href="#GLYPHcmss10_83" x="6.458462"></use>
    <use xlink:href="#GLYPHcmss10_84" x="12.014122"></use>
  </g>
  <g transform="translate(162.386826 68.622253)" style="fill: rgb(0.000000%,0.000000%,0.000000%);">
    <use xlink:href="#GLYPHcmss10_71"></use>
    <use xlink:href="#GLYPHcmss10_78" x="6.666793"></use>
    <use xlink:href="#GLYPHcmss10_68" x="13.750280"></use>
  </g>
  <g transform="translate(22.166992 83.950348)" style="fill: rgb(0.000000%,0.000000%,0.000000%);">
    <use xlink:href="#GLYPHcmss10_68"></use>
    <use xlink:href="#GLYPHcmss10_73" x="7.222374"></use>
    <use xlink:href="#GLYPHcmss10_78" x="10.000220"></use>
  </g>
  <g transform="translate(3.042053 83.950348)" style="fill: rgb(0.000000%,0.000000%,0.000000%);">
    <use xlink:href="#GLYPHcmss10_67"></use>
    <use xlink:href="#GLYPHcmss10_83" x="6.389002"></use>
  </g>
  <g transform="translate(64.706497 83.950348)" style="fill: rgb(0.000000%,0.000000%,0.000000%);">
    <use xlink:href="#GLYPHcmss10_67"></use>
    <use xlink:href="#GLYPHcmss10_76" x="6.389002"></use>
    <use xlink:href="#GLYPHcmss10_75" x="11.805776"></use>
  </g>
</svg>
