<?xml version="1.0"?>
<!-- Created by MetaPost 2.01 on 2022.08.11:1718 -->
<svg version="1.1" xmlns="http://www.w3.org/2000/svg" xmlns:xlink="http://www.w3.org/1999/xlink" width="251.479218" height="57.192902" viewBox="0 0 251.479218 57.192902">
<!-- Original BoundingBox: -38.975006 -25.330902 212.504211 31.862000 -->
  <defs>
    <g transform="scale(0.009963,0.009963)" id="GLYPHcmss10_49">
      <path style="fill-rule: evenodd;" d="M299.000000 -678.000000L279.000000 -678.000000C220.000000 -617.000000,137.000000 -614.000000,89.000000 -612.000000L89.000000 -554.000000C122.000000 -555.000000,170.000000 -557.000000,220.000000 -578.000000L220.000000 -58.000000L95.000000 -58.000000L95.000000 -0.000000L424.000000 -0.000000L424.000000 -58.000000L299.000000 -58.000000"></path>
    </g>
    <g transform="scale(0.009963,0.009963)" id="GLYPHcmss10_50">
      <path style="fill-rule: evenodd;" d="M174.000000 -188.000000L50.000000 -64.000000L50.000000 -0.000000L449.000000 -0.000000L449.000000 -71.000000L267.000000 -71.000000C255.000000 -71.000000,243.000000 -70.000000,231.000000 -70.000000L122.000000 -70.000000C154.000000 -98.000000,230.000000 -173.000000,261.000000 -202.000000C280.000000 -220.000000,331.000000 -262.000000,350.000000 -280.000000C395.000000 -325.000000,449.000000 -378.000000,449.000000 -463.000000C449.000000 -578.000000,368.000000 -678.000000,236.000000 -678.000000C122.000000 -678.000000,66.000000 -600.000000,42.000000 -514.000000C54.000000 -497.000000,59.000000 -491.000000,61.000000 -488.000000C63.000000 -486.000000,73.000000 -473.000000,83.000000 -459.000000C103.000000 -536.000000,131.000000 -614.000000,222.000000 -614.000000C316.000000 -614.000000,367.000000 -539.000000,367.000000 -461.000000C367.000000 -376.000000,310.000000 -319.000000,251.000000 -259.000000"></path>
    </g>
    <g transform="scale(0.009963,0.009963)" id="GLYPHcmss10_51">
      <path style="fill-rule: evenodd;" d="M92.000000 -514.000000C121.000000 -584.000000,186.000000 -620.000000,247.000000 -620.000000C299.000000 -620.000000,348.000000 -590.000000,348.000000 -526.000000C348.000000 -465.000000,307.000000 -406.000000,246.000000 -392.000000C240.000000 -391.000000,238.000000 -391.000000,167.000000 -385.000000L167.000000 -324.000000L238.000000 -324.000000C346.000000 -324.000000,368.000000 -231.000000,368.000000 -181.000000C368.000000 -103.000000,322.000000 -39.000000,245.000000 -39.000000C176.000000 -39.000000,97.000000 -74.000000,53.000000 -142.000000L42.000000 -82.000000C115.000000 12.000000,207.000000 22.000000,247.000000 22.000000C369.000000 22.000000,457.000000 -75.000000,457.000000 -180.000000C457.000000 -271.000000,387.000000 -333.000000,319.000000 -354.000000C395.000000 -395.000000,430.000000 -463.000000,430.000000 -526.000000C430.000000 -612.000000,347.000000 -678.000000,248.000000 -678.000000C171.000000 -678.000000,98.000000 -638.000000,56.000000 -568.000000"></path>
    </g>
    <g transform="scale(0.009963,0.009963)" id="GLYPHcmss10_52">
      <path style="fill-rule: evenodd;" d="M372.000000 -171.000000L471.000000 -171.000000L471.000000 -232.000000L372.000000 -232.000000L372.000000 -656.000000L281.000000 -656.000000L28.000000 -232.000000L28.000000 -171.000000L293.000000 -171.000000L293.000000 -0.000000L372.000000 -0.000000M106.000000 -232.000000C158.000000 -318.000000,299.000000 -555.000000,299.000000 -612.000000L299.000000 -232.000000"></path>
    </g>
  </defs>
  <path d="M12.144196 56.080902L68.837097 56.080902L68.837097 -0.612000L12.144196 -0.612000Z" style="stroke:rgb(0.000000%,0.000000%,0.000000%); stroke-width: 0.500000;stroke-linecap: round;stroke-linejoin: round;stroke-miterlimit: 10.000000;fill: none;"></path>
  <g transform="translate(38.000000 42.338409)" style="fill: rgb(0.000000%,0.000000%,0.000000%);">
    <use xlink:href="#GLYPHcmss10_49"></use>
  </g>
  <path d="M66.002274 10.726410L14.979019 10.726410" style="stroke:rgb(0.000000%,0.000000%,0.000000%); stroke-width: 0.500000;stroke-linecap: round;stroke-linejoin: round;stroke-miterlimit: 10.000000;fill: none;"></path>
  <path d="M18.674713 9.195572L14.979019 10.726410L18.674713 12.257248Z" style="stroke:rgb(0.000000%,0.000000%,0.000000%); stroke-width: 0.500000;fill: rgb(0.000000%,0.000000%,0.000000%);"></path>
  <path d="M68.837097 56.080902L125.529999 56.080902L125.529999 -0.612000L68.837097 -0.612000Z" style="stroke:rgb(0.000000%,0.000000%,0.000000%); stroke-width: 0.500000;stroke-linecap: round;stroke-linejoin: round;stroke-miterlimit: 10.000000;fill: none;"></path>
  <g transform="translate(94.692902 42.338409)" style="fill: rgb(0.000000%,0.000000%,0.000000%);">
    <use xlink:href="#GLYPHcmss10_50"></use>
  </g>
  <path d="M122.695175 10.726410L71.671921 10.726410" style="stroke:rgb(0.000000%,0.000000%,0.000000%); stroke-width: 0.500000;stroke-linecap: round;stroke-linejoin: round;stroke-miterlimit: 10.000000;fill: none;"></path>
  <path d="M75.367615 9.195572L71.671921 10.726410L75.367615 12.257248Z" style="stroke:rgb(0.000000%,0.000000%,0.000000%); stroke-width: 0.500000;fill: rgb(0.000000%,0.000000%,0.000000%);"></path>
  <path d="M125.529999 56.080902L182.222900 56.080902L182.222900 -0.612000L125.529999 -0.612000Z" style="stroke:rgb(0.000000%,0.000000%,0.000000%); stroke-width: 0.500000;stroke-linecap: round;stroke-linejoin: round;stroke-miterlimit: 10.000000;fill: none;"></path>
  <g transform="translate(151.385803 42.338409)" style="fill: rgb(0.000000%,0.000000%,0.000000%);">
    <use xlink:href="#GLYPHcmss10_51"></use>
  </g>
  <path d="M179.388077 10.726410L128.364822 10.726410" style="stroke:rgb(0.000000%,0.000000%,0.000000%); stroke-width: 0.500000;stroke-linecap: round;stroke-linejoin: round;stroke-miterlimit: 10.000000;fill: none;"></path>
  <path d="M132.060516 9.195572L128.364822 10.726410L132.060516 12.257248Z" style="stroke:rgb(0.000000%,0.000000%,0.000000%); stroke-width: 0.500000;fill: rgb(0.000000%,0.000000%,0.000000%);"></path>
  <path d="M182.222900 56.080902L238.915802 56.080902L238.915802 -0.612000L182.222900 -0.612000Z" style="stroke:rgb(0.000000%,0.000000%,0.000000%); stroke-width: 0.500000;stroke-linecap: round;stroke-linejoin: round;stroke-miterlimit: 10.000000;fill: none;"></path>
  <g transform="translate(208.078705 42.338409)" style="fill: rgb(0.000000%,0.000000%,0.000000%);">
    <use xlink:href="#GLYPHcmss10_52"></use>
  </g>
  <path d="M236.080978 10.726410L185.057724 10.726410" style="stroke:rgb(0.000000%,0.000000%,0.000000%); stroke-width: 0.500000;stroke-linecap: round;stroke-linejoin: round;stroke-miterlimit: 10.000000;fill: none;"></path>
  <path d="M188.753418 9.195572L185.057724 10.726410L188.753418 12.257248Z" style="stroke:rgb(0.000000%,0.000000%,0.000000%); stroke-width: 0.500000;fill: rgb(0.000000%,0.000000%,0.000000%);"></path>
  <path d="M238.915802 16.396042L250.254211 16.396042" style="stroke:rgb(0.000000%,0.000000%,0.000000%); stroke-width: 0.500000;stroke-linecap: round;stroke-linejoin: round;stroke-miterlimit: 10.000000;fill: none;"></path>
  <path d="M238.915802 22.064819L250.254211 22.064819" style="stroke:rgb(0.000000%,0.000000%,0.000000%); stroke-width: 0.500000;stroke-linecap: round;stroke-linejoin: round;stroke-miterlimit: 10.000000;fill: none;"></path>
  <path d="M238.915802 27.734451L250.254211 27.734451" style="stroke:rgb(0.000000%,0.000000%,0.000000%); stroke-width: 0.500000;stroke-linecap: round;stroke-linejoin: round;stroke-miterlimit: 10.000000;fill: none;"></path>
  <path d="M238.915802 33.404083L250.254211 33.404083" style="stroke:rgb(0.000000%,0.000000%,0.000000%); stroke-width: 0.500000;stroke-linecap: round;stroke-linejoin: round;stroke-miterlimit: 10.000000;fill: none;"></path>
  <path d="M238.915802 39.072861L250.254211 39.072861" style="stroke:rgb(0.000000%,0.000000%,0.000000%); stroke-width: 0.500000;stroke-linecap: round;stroke-linejoin: round;stroke-miterlimit: 10.000000;fill: none;"></path>
  <path d="M0.805786 -0.612000L0.805786 56.080902" style="stroke:rgb(0.000000%,0.000000%,0.000000%); stroke-width: 0.500000;stroke-linecap: round;stroke-linejoin: round;stroke-miterlimit: 10.000000;fill: none;"></path>
  <path d="M-0.725006 52.385330L0.805786 56.080902L2.336578 52.385330Z" style="stroke:rgb(0.000000%,0.000000%,0.000000%); stroke-width: 0.500000;fill: rgb(0.000000%,0.000000%,0.000000%);"></path>
</svg>
